<svg xmlns="http://www.w3.org/2000/svg" viewBox="0 0 220 150" width="220" height="150"><defs><filter id="sh" x="-20%" y="-20%" width="140%" height="150%"><feGaussianBlur stdDeviation="3"/></filter><linearGradient id="glass" x1="0" x2="1"><stop offset="0" stop-color="#ffffff" stop-opacity=".95"/><stop offset=".5" stop-color="#dff1f7" stop-opacity=".7"/><stop offset="1" stop-color="#b9dbe8" stop-opacity=".85"/></linearGradient><linearGradient id="steel" x1="0" y1="0" x2="1" y2="1"><stop offset="0" stop-color="#f4f7f9"/><stop offset=".35" stop-color="#b8c2ca"/><stop offset=".6" stop-color="#eef2f4"/><stop offset="1" stop-color="#8d99a3"/></linearGradient><linearGradient id="steelv" x1="0" y1="0" x2="0" y2="1"><stop offset="0" stop-color="#f4f7f9"/><stop offset=".45" stop-color="#aeb9c2"/><stop offset="1" stop-color="#6b7782"/></linearGradient></defs><ellipse cx="110" cy="140" rx="90" ry="6" fill="#0b1b24" opacity=".35" filter="url(#sh)"/><rect x="30" y="66" width="130" height="22" rx="8" fill="#e0f2fe" stroke="#0284c7" stroke-width="1.6"/><rect x="132" y="60" width="38" height="16" rx="6" fill="#fff" stroke="#94a3b8"/><path d="M40 88 L36 130 M150 88 L154 130" stroke="#64748b" stroke-width="5" stroke-linecap="round"/><path d="M30 74 L10 52 L10 40 M30 74 L6 80" stroke="#475569" stroke-width="4" fill="none" stroke-linecap="round"/><path d="M14 38 C20 34 26 38 22 46 Z" fill="#334155"/><rect x="60" y="8" width="110" height="26" rx="4" fill="#fff"/><rect x="60" y="8" width="110" height="8" rx="4" fill="#0284c7"/><text x="115.0" y="15" font-family="Plus Jakarta Sans,Arial,sans-serif" font-size="5.4" font-weight="800" fill="#fff" text-anchor="middle" >CAMILLA GINECOLÓGICA</text><text x="115.0" y="25" font-family="Plus Jakarta Sans,Arial,sans-serif" font-size="6.6" font-weight="800" fill="#0f172a" text-anchor="middle" >Con estribos</text><text x="115.0" y="32" font-family="Plus Jakarta Sans,Arial,sans-serif" font-size="5" font-weight="600" fill="#475569" text-anchor="middle" >Posición ginecológica</text></svg>