<svg xmlns="http://www.w3.org/2000/svg" viewBox="0 0 200 150" width="200" height="150"><defs><filter id="sh" x="-20%" y="-20%" width="140%" height="150%"><feGaussianBlur stdDeviation="3"/></filter><linearGradient id="glass" x1="0" x2="1"><stop offset="0" stop-color="#ffffff" stop-opacity=".95"/><stop offset=".5" stop-color="#dff1f7" stop-opacity=".7"/><stop offset="1" stop-color="#b9dbe8" stop-opacity=".85"/></linearGradient><linearGradient id="steel" x1="0" y1="0" x2="1" y2="1"><stop offset="0" stop-color="#f4f7f9"/><stop offset=".35" stop-color="#b8c2ca"/><stop offset=".6" stop-color="#eef2f4"/><stop offset="1" stop-color="#8d99a3"/></linearGradient><linearGradient id="steelv" x1="0" y1="0" x2="0" y2="1"><stop offset="0" stop-color="#f4f7f9"/><stop offset=".45" stop-color="#aeb9c2"/><stop offset="1" stop-color="#6b7782"/></linearGradient></defs><ellipse cx="100" cy="130" rx="60" ry="5" fill="#0b1b24" opacity=".35" filter="url(#sh)"/><rect x="56" y="30" width="88" height="90" rx="14" fill="#1e293b" stroke="#0f172a" stroke-width="2"/><rect x="66" y="42" width="68" height="34" rx="6" fill="#0b1220"/><path d="M70 60 L82 60 L86 50 L92 70 L98 56 L106 60 L130 60" stroke="#4ade80" fill="none" stroke-width="1.6"/><circle cx="100" cy="98" r="10" fill="#64748b"/><path d="M144 96 C168 96 168 130 150 134" stroke="#334155" stroke-width="4" fill="none"/><rect x="50" y="6" width="100" height="26" rx="4" fill="#fff"/><rect x="50" y="6" width="100" height="8" rx="4" fill="#334155"/><text x="100.0" y="13" font-family="Plus Jakarta Sans,Arial,sans-serif" font-size="5.4" font-weight="800" fill="#fff" text-anchor="middle" >DOPPLER FETAL</text><text x="100.0" y="23" font-family="Plus Jakarta Sans,Arial,sans-serif" font-size="6.6" font-weight="800" fill="#0f172a" text-anchor="middle" >Portátil</text><text x="100.0" y="30" font-family="Plus Jakarta Sans,Arial,sans-serif" font-size="5" font-weight="600" fill="#475569" text-anchor="middle" >Detector de latidos</text></svg>