<svg xmlns="http://www.w3.org/2000/svg" viewBox="0 0 200 138" width="200" height="138"><defs><filter id="sh" x="-20%" y="-20%" width="140%" height="150%"><feGaussianBlur stdDeviation="3"/></filter><linearGradient id="glass" x1="0" x2="1"><stop offset="0" stop-color="#ffffff" stop-opacity=".95"/><stop offset=".5" stop-color="#dff1f7" stop-opacity=".7"/><stop offset="1" stop-color="#b9dbe8" stop-opacity=".85"/></linearGradient><linearGradient id="steel" x1="0" y1="0" x2="1" y2="1"><stop offset="0" stop-color="#f4f7f9"/><stop offset=".35" stop-color="#b8c2ca"/><stop offset=".6" stop-color="#eef2f4"/><stop offset="1" stop-color="#8d99a3"/></linearGradient><linearGradient id="paper" x1="0" y1="0" x2="1" y2="1"><stop offset="0" stop-color="#ffffff"/><stop offset="1" stop-color="#e4ebef"/></linearGradient><linearGradient id="film" x1="0" y1="0" x2="1" y2="1"><stop offset="0" stop-color="#e9f6fb" stop-opacity=".85"/><stop offset="1" stop-color="#c5e3ef" stop-opacity=".7"/></linearGradient></defs><ellipse cx="100" cy="128" rx="76" ry="8" fill="#0b1b24" opacity=".35" filter="url(#sh)"/><path d="M24 52 L176 52 L184 124 L16 124 Z" fill="#38bdf8" stroke="#0369a1"/><path d="M24 52 L176 52 L168 40 L32 40 Z" fill="#7dd3fc" stroke="#0369a1"/><rect x="60" y="58" width="80" height="26" rx="13" fill="#0f172a" opacity=".85"/><rect x="30" y="92" width="140" height="26" rx="4" fill="#fff"/><text x="100" y="74" font-family="Plus Jakarta Sans,Arial,sans-serif" font-size="6.5" font-weight="600" fill="#7dd3fc" text-anchor="middle" >↓ sacar un guante ↓</text><text x="100" y="104" font-family="Plus Jakarta Sans,Arial,sans-serif" font-size="10.5" font-weight="800" fill="#0f172a" text-anchor="middle" >GUANTES DE EXAMEN</text><text x="100" y="114" font-family="Plus Jakarta Sans,Arial,sans-serif" font-size="6.8" font-weight="600" fill="#475569" text-anchor="middle" >NO ESTÉRILES · talle M · 100 u.</text><path d="M82 48 C78 24 90 16 98 24 C106 12 118 22 112 48" fill="#bae6fd" stroke="#0369a1" stroke-width=".8"/></svg>