<svg xmlns="http://www.w3.org/2000/svg" viewBox="0 0 224 136" width="224" height="136"><defs><filter id="sh" x="-20%" y="-20%" width="140%" height="150%"><feGaussianBlur stdDeviation="3"/></filter><linearGradient id="glass" x1="0" x2="1"><stop offset="0" stop-color="#ffffff" stop-opacity=".95"/><stop offset=".5" stop-color="#dff1f7" stop-opacity=".7"/><stop offset="1" stop-color="#b9dbe8" stop-opacity=".85"/></linearGradient><linearGradient id="steel" x1="0" y1="0" x2="1" y2="1"><stop offset="0" stop-color="#f4f7f9"/><stop offset=".35" stop-color="#b8c2ca"/><stop offset=".6" stop-color="#eef2f4"/><stop offset="1" stop-color="#8d99a3"/></linearGradient><linearGradient id="steelv" x1="0" y1="0" x2="0" y2="1"><stop offset="0" stop-color="#f4f7f9"/><stop offset=".45" stop-color="#aeb9c2"/><stop offset="1" stop-color="#6b7782"/></linearGradient><linearGradient id="paper" x1="0" y1="0" x2="1" y2="1"><stop offset="0" stop-color="#ffffff"/><stop offset="1" stop-color="#e4ebef"/></linearGradient><radialGradient id="luz"><stop offset="0" stop-color="#fffbe0"/><stop offset=".4" stop-color="#fde68a" stop-opacity=".9"/><stop offset="1" stop-color="#fde68a" stop-opacity="0"/></radialGradient></defs><ellipse cx="112" cy="124" rx="96" ry="7" fill="#0b1b24" opacity=".35" filter="url(#sh)"/><rect x="18" y="78" width="112" height="26" rx="12" fill="url(#steelv)" stroke="#64748b" stroke-width="1"/><rect x="30" y="80" width="3" height="22" fill="#1f2937" opacity=".35"/><rect x="38" y="80" width="3" height="22" fill="#1f2937" opacity=".35"/><rect x="46" y="80" width="3" height="22" fill="#1f2937" opacity=".35"/><rect x="54" y="80" width="3" height="22" fill="#1f2937" opacity=".35"/><rect x="62" y="80" width="3" height="22" fill="#1f2937" opacity=".35"/><rect x="70" y="80" width="3" height="22" fill="#1f2937" opacity=".35"/><rect x="78" y="80" width="3" height="22" fill="#1f2937" opacity=".35"/><rect x="86" y="80" width="3" height="22" fill="#1f2937" opacity=".35"/><rect x="94" y="80" width="3" height="22" fill="#1f2937" opacity=".35"/><rect x="102" y="80" width="3" height="22" fill="#1f2937" opacity=".35"/><rect x="110" y="80" width="3" height="22" fill="#1f2937" opacity=".35"/><rect x="118" y="80" width="3" height="22" fill="#1f2937" opacity=".35"/><rect x="12" y="82" width="12" height="18" rx="5" fill="#334155"/><rect x="124" y="74" width="16" height="34" rx="5" fill="url(#steelv)" stroke="#64748b"/><circle cx="132" cy="91" r="3" fill="#475569"/><path d="M140 80 L200 76 L206 82 L200 90 L140 100 Z" fill="url(#steel)" stroke="#64748b" stroke-width="1"/><circle cx="203" cy="87" r="16" fill="url(#luz)"/><circle cx="203" cy="87" r="3.2" fill="#fffde7"/><rect x="40" y="48" width="74" height="26" rx="4" fill="#fff"/><rect x="40" y="48" width="74" height="8" rx="4" fill="#0f766e"/><text x="77.0" y="55" font-family="Plus Jakarta Sans,Arial,sans-serif" font-size="5.4" font-weight="800" fill="#fff" text-anchor="middle" >LARINGOSCOPIO</text><text x="77.0" y="65" font-family="Plus Jakarta Sans,Arial,sans-serif" font-size="6.6" font-weight="800" fill="#0f172a" text-anchor="middle" >Hoja recta Miller</text><text x="77.0" y="72" font-family="Plus Jakarta Sans,Arial,sans-serif" font-size="5" font-weight="600" fill="#475569" text-anchor="middle" >N.º 0 · neonatal</text></svg>