<svg xmlns="http://www.w3.org/2000/svg" viewBox="0 0 250 150" width="250" height="150"><defs><filter id="sh" x="-20%" y="-20%" width="140%" height="150%"><feGaussianBlur stdDeviation="3"/></filter><linearGradient id="glass" x1="0" x2="1"><stop offset="0" stop-color="#ffffff" stop-opacity=".95"/><stop offset=".5" stop-color="#dff1f7" stop-opacity=".7"/><stop offset="1" stop-color="#b9dbe8" stop-opacity=".85"/></linearGradient><linearGradient id="steel" x1="0" y1="0" x2="1" y2="1"><stop offset="0" stop-color="#f4f7f9"/><stop offset=".35" stop-color="#b8c2ca"/><stop offset=".6" stop-color="#eef2f4"/><stop offset="1" stop-color="#8d99a3"/></linearGradient><linearGradient id="paper" x1="0" y1="0" x2="1" y2="1"><stop offset="0" stop-color="#ffffff"/><stop offset="1" stop-color="#e4ebef"/></linearGradient><linearGradient id="film" x1="0" y1="0" x2="1" y2="1"><stop offset="0" stop-color="#e9f6fb" stop-opacity=".85"/><stop offset="1" stop-color="#c5e3ef" stop-opacity=".7"/></linearGradient></defs><ellipse cx="125" cy="142" rx="100" ry="6" fill="#0b1b24" opacity=".35" filter="url(#sh)"/><rect x="10" y="12" width="230" height="118" rx="8" fill="url(#paper)" stroke="#b6c4cc"/><rect x="10" y="12" width="230" height="118" rx="8" fill="none" stroke="#fff" stroke-width="2" opacity=".6"/><rect x="10" y="12" width="76" height="118" rx="8" fill="#f1f6f9"/><rect x="86" y="18" width="148" height="106" rx="5" fill="url(#film)" stroke="#a7cddc"/><path d="M104 70 C140 70 170 66 224 66" stroke="#f3d9a8" stroke-width="7" fill="none" stroke-linecap="round"/><path d="M104 70 C140 70 170 66 224 66" stroke="#fff" stroke-width="1.5" opacity=".7" fill="none"/><path d="M96 60 L112 66 L112 74 L96 80 Z" fill="#a3e635" stroke="#4d7c0f"/><ellipse cx="224" cy="66" rx="5" ry="3" fill="#e5c58a"/><rect x="10" y="12" width="76" height="22" rx="8" fill="#0d9488"/><text x="48" y="27" font-family="Plus Jakarta Sans,Arial,sans-serif" font-size="6.4" font-weight="800" fill="#fff" text-anchor="middle" >SONDA NÉLATON</text><text x="48" y="54" font-family="Plus Jakarta Sans,Arial,sans-serif" font-size="11" font-weight="800" fill="#0f172a" text-anchor="middle" >12 Fr</text><text x="48" y="68" font-family="Plus Jakarta Sans,Arial,sans-serif" font-size="5.6" font-weight="700" fill="#0f172a" text-anchor="middle" >Recta · sin balón</text><text x="48" y="84" font-family="Plus Jakarta Sans,Arial,sans-serif" font-size="6.4" font-weight="600" fill="#475569" text-anchor="middle" >Evacuadora</text><text x="48" y="94" font-family="Plus Jakarta Sans,Arial,sans-serif" font-size="6.4" font-weight="600" fill="#475569" text-anchor="middle" >ESTÉRIL · de un solo uso</text><rect x="22" y="102" width="52" height="16" rx="3" fill="#fff" stroke="#cbd5e1"/><rect x="25.0" y="105" width="1.0" height="10" fill="#0f172a"/><rect x="27.4" y="105" width="1.6" height="10" fill="#0f172a"/><rect x="29.8" y="105" width="2.2" height="10" fill="#0f172a"/><rect x="32.2" y="105" width="1.0" height="10" fill="#0f172a"/><rect x="34.6" y="105" width="1.6" height="10" fill="#0f172a"/><rect x="37.0" y="105" width="2.2" height="10" fill="#0f172a"/><rect x="39.4" y="105" width="1.0" height="10" fill="#0f172a"/><rect x="41.8" y="105" width="1.6" height="10" fill="#0f172a"/><rect x="44.2" y="105" width="2.2" height="10" fill="#0f172a"/><rect x="46.599999999999994" y="105" width="1.0" height="10" fill="#0f172a"/><rect x="49.0" y="105" width="1.6" height="10" fill="#0f172a"/><rect x="51.4" y="105" width="2.2" height="10" fill="#0f172a"/><rect x="53.8" y="105" width="1.0" height="10" fill="#0f172a"/><rect x="56.2" y="105" width="1.6" height="10" fill="#0f172a"/><rect x="58.6" y="105" width="2.2" height="10" fill="#0f172a"/><rect x="61.0" y="105" width="1.0" height="10" fill="#0f172a"/><rect x="63.4" y="105" width="1.6" height="10" fill="#0f172a"/><rect x="65.8" y="105" width="2.2" height="10" fill="#0f172a"/><rect x="68.19999999999999" y="105" width="1.0" height="10" fill="#0f172a"/><rect x="70.6" y="105" width="1.6" height="10" fill="#0f172a"/><path d="M214 14 L238 14 L238 38 Z" fill="#cde4ee" opacity=".7"/></svg>