<svg xmlns="http://www.w3.org/2000/svg" viewBox="0 0 200 150" width="200" height="150"><defs><filter id="sh" x="-20%" y="-20%" width="140%" height="150%"><feGaussianBlur stdDeviation="3"/></filter><linearGradient id="glass" x1="0" x2="1"><stop offset="0" stop-color="#ffffff" stop-opacity=".95"/><stop offset=".5" stop-color="#dff1f7" stop-opacity=".7"/><stop offset="1" stop-color="#b9dbe8" stop-opacity=".85"/></linearGradient><linearGradient id="steel" x1="0" y1="0" x2="1" y2="1"><stop offset="0" stop-color="#f4f7f9"/><stop offset=".35" stop-color="#b8c2ca"/><stop offset=".6" stop-color="#eef2f4"/><stop offset="1" stop-color="#8d99a3"/></linearGradient><linearGradient id="steelv" x1="0" y1="0" x2="0" y2="1"><stop offset="0" stop-color="#f4f7f9"/><stop offset=".45" stop-color="#aeb9c2"/><stop offset="1" stop-color="#6b7782"/></linearGradient></defs><ellipse cx="100" cy="140" rx="66" ry="5" fill="#0b1b24" opacity=".35" filter="url(#sh)"/><rect x="42" y="12" width="116" height="120" rx="6" fill="#fff" stroke="#94a3b8" stroke-width="1.5"/><rect x="42" y="12" width="116" height="20" rx="6" fill="#64748b"/><text x="100" y="26" font-family="Plus Jakarta Sans,Arial,sans-serif" font-size="8" font-weight="800" fill="#fff" text-anchor="middle" >ORDEN DE ESTUDIOS</text><path d="M54 46 l6 0" stroke="#0d9488" stroke-width="2"/><rect x="66" y="43" width="70" height="4" rx="2" fill="#cbd5e1"/><path d="M54 60 l6 0" stroke="#0d9488" stroke-width="2"/><rect x="66" y="57" width="58" height="4" rx="2" fill="#cbd5e1"/><path d="M54 74 l6 0" stroke="#0d9488" stroke-width="2"/><rect x="66" y="71" width="46" height="4" rx="2" fill="#cbd5e1"/><path d="M54 88 l6 0" stroke="#0d9488" stroke-width="2"/><rect x="66" y="85" width="70" height="4" rx="2" fill="#cbd5e1"/><path d="M54 102 l6 0" stroke="#0d9488" stroke-width="2"/><rect x="66" y="99" width="58" height="4" rx="2" fill="#cbd5e1"/><path d="M54 116 l6 0" stroke="#0d9488" stroke-width="2"/><rect x="66" y="113" width="46" height="4" rx="2" fill="#cbd5e1"/></svg>