<svg xmlns="http://www.w3.org/2000/svg" viewBox="0 0 230 130" width="230" height="130"><defs><filter id="sh" x="-20%" y="-20%" width="140%" height="150%"><feGaussianBlur stdDeviation="3"/></filter><linearGradient id="glass" x1="0" x2="1"><stop offset="0" stop-color="#ffffff" stop-opacity=".95"/><stop offset=".5" stop-color="#dff1f7" stop-opacity=".7"/><stop offset="1" stop-color="#b9dbe8" stop-opacity=".85"/></linearGradient><linearGradient id="steel" x1="0" y1="0" x2="1" y2="1"><stop offset="0" stop-color="#f4f7f9"/><stop offset=".35" stop-color="#b8c2ca"/><stop offset=".6" stop-color="#eef2f4"/><stop offset="1" stop-color="#8d99a3"/></linearGradient><linearGradient id="steelv" x1="0" y1="0" x2="0" y2="1"><stop offset="0" stop-color="#f4f7f9"/><stop offset=".45" stop-color="#aeb9c2"/><stop offset="1" stop-color="#6b7782"/></linearGradient></defs><ellipse cx="120" cy="110" rx="90" ry="6" fill="#0b1b24" opacity=".35" filter="url(#sh)"/><g transform="translate(14,16) rotate(-4)"><rect width="104" height="52" rx="5" fill="#fff" stroke="#cbd5e1"/><rect width="104" height="12" rx="5" fill="#0d9488"/><text x="52" y="9" font-family="Plus Jakarta Sans,Arial,sans-serif" font-size="6.2" font-weight="800" fill="#fff" text-anchor="middle" >LÍQUIDO SINOVIAL</text><rect x="8" y="20" width="72" height="3.6" rx="1.8" fill="#94a3b8"/><rect x="8" y="28" width="54" height="3.6" rx="1.8" fill="#94a3b8"/><rect x="8" y="36" width="72" height="3.6" rx="1.8" fill="#94a3b8"/><rect x="8" y="44" width="54" height="3.6" rx="1.8" fill="#94a3b8"/><circle cx="90" cy="38" r="7" fill="none" stroke="#0d9488" stroke-width="1.6"/></g><g transform="translate(70,44) rotate(-4)"><rect width="104" height="52" rx="5" fill="#fff" stroke="#cbd5e1"/><rect width="104" height="12" rx="5" fill="#2563eb"/><text x="52" y="9" font-family="Plus Jakarta Sans,Arial,sans-serif" font-size="6.2" font-weight="800" fill="#fff" text-anchor="middle" >LÍQUIDO SINOVIAL</text><rect x="8" y="20" width="72" height="3.6" rx="1.8" fill="#94a3b8"/><rect x="8" y="28" width="54" height="3.6" rx="1.8" fill="#94a3b8"/><rect x="8" y="36" width="72" height="3.6" rx="1.8" fill="#94a3b8"/><rect x="8" y="44" width="54" height="3.6" rx="1.8" fill="#94a3b8"/><circle cx="90" cy="38" r="7" fill="none" stroke="#0d9488" stroke-width="1.6"/></g><g transform="translate(34,70) rotate(-4)"><rect width="104" height="52" rx="5" fill="#fff" stroke="#cbd5e1"/><rect width="104" height="12" rx="5" fill="#7c3aed"/><text x="52" y="9" font-family="Plus Jakarta Sans,Arial,sans-serif" font-size="6.2" font-weight="800" fill="#fff" text-anchor="middle" >LÍQUIDO SINOVIAL</text><rect x="8" y="20" width="72" height="3.6" rx="1.8" fill="#94a3b8"/><rect x="8" y="28" width="54" height="3.6" rx="1.8" fill="#94a3b8"/><rect x="8" y="36" width="72" height="3.6" rx="1.8" fill="#94a3b8"/><rect x="8" y="44" width="54" height="3.6" rx="1.8" fill="#94a3b8"/><circle cx="90" cy="38" r="7" fill="none" stroke="#0d9488" stroke-width="1.6"/></g><rect x="70" y="100" width="100" height="26" rx="4" fill="#fff"/><rect x="70" y="100" width="100" height="8" rx="4" fill="#0d9488"/><text x="120.0" y="107" font-family="Plus Jakarta Sans,Arial,sans-serif" font-size="5.4" font-weight="800" fill="#fff" text-anchor="middle" >RÓTULOS</text><text x="120.0" y="117" font-family="Plus Jakarta Sans,Arial,sans-serif" font-size="6.6" font-weight="800" fill="#0f172a" text-anchor="middle" >Paciente · DNI · fecha</text><text x="120.0" y="124" font-family="Plus Jakarta Sans,Arial,sans-serif" font-size="5" font-weight="600" fill="#475569" text-anchor="middle" >Articulación · anticoagulante</text></svg>