<svg xmlns="http://www.w3.org/2000/svg" viewBox="0 0 220 122" width="220" height="122"><defs><filter id="sh" x="-20%" y="-20%" width="140%" height="150%"><feGaussianBlur stdDeviation="3"/></filter><linearGradient id="glass" x1="0" x2="1"><stop offset="0" stop-color="#ffffff" stop-opacity=".95"/><stop offset=".5" stop-color="#dff1f7" stop-opacity=".7"/><stop offset="1" stop-color="#b9dbe8" stop-opacity=".85"/></linearGradient><linearGradient id="steel" x1="0" y1="0" x2="1" y2="1"><stop offset="0" stop-color="#f4f7f9"/><stop offset=".35" stop-color="#b8c2ca"/><stop offset=".6" stop-color="#eef2f4"/><stop offset="1" stop-color="#8d99a3"/></linearGradient><linearGradient id="steelv" x1="0" y1="0" x2="0" y2="1"><stop offset="0" stop-color="#f4f7f9"/><stop offset=".45" stop-color="#aeb9c2"/><stop offset="1" stop-color="#6b7782"/></linearGradient></defs><ellipse cx="110" cy="110" rx="90" ry="7" fill="#0b1b24" opacity=".35" filter="url(#sh)"/><path d="M20 48 L184 36 L200 54 L200 78 L20 86 Z" fill="#facc15" stroke="#a16207" stroke-width="1.6"/><path d="M20 48 L184 36 L200 54 L36 66 Z" fill="#fde047" stroke="#a16207"/><ellipse cx="50" cy="66" rx="7" ry="3.4" fill="#a16207" opacity=".7"/><ellipse cx="84" cy="64" rx="7" ry="3.4" fill="#a16207" opacity=".7"/><ellipse cx="118" cy="62" rx="7" ry="3.4" fill="#a16207" opacity=".7"/><ellipse cx="152" cy="60" rx="7" ry="3.4" fill="#a16207" opacity=".7"/><ellipse cx="186" cy="58" rx="7" ry="3.4" fill="#a16207" opacity=".7"/><rect x="52" y="82" width="112" height="26" rx="4" fill="#fff"/><rect x="52" y="82" width="112" height="8" rx="4" fill="#a16207"/><text x="108.0" y="89" font-family="Plus Jakarta Sans,Arial,sans-serif" font-size="5.4" font-weight="800" fill="#fff" text-anchor="middle" >TABLA RÍGIDA</text><text x="108.0" y="99" font-family="Plus Jakarta Sans,Arial,sans-serif" font-size="6.6" font-weight="800" fill="#0f172a" text-anchor="middle" >Dorsal para compresiones</text><text x="108.0" y="106" font-family="Plus Jakarta Sans,Arial,sans-serif" font-size="5" font-weight="600" fill="#475569" text-anchor="middle" >Superficie firme</text></svg>