<svg xmlns="http://www.w3.org/2000/svg" viewBox="0 0 220 150" width="220" height="150"><defs><filter id="sh" x="-20%" y="-20%" width="140%" height="150%"><feGaussianBlur stdDeviation="3"/></filter><linearGradient id="glass" x1="0" x2="1"><stop offset="0" stop-color="#ffffff" stop-opacity=".95"/><stop offset=".5" stop-color="#dff1f7" stop-opacity=".7"/><stop offset="1" stop-color="#b9dbe8" stop-opacity=".85"/></linearGradient><linearGradient id="steel" x1="0" y1="0" x2="1" y2="1"><stop offset="0" stop-color="#f4f7f9"/><stop offset=".35" stop-color="#b8c2ca"/><stop offset=".6" stop-color="#eef2f4"/><stop offset="1" stop-color="#8d99a3"/></linearGradient><linearGradient id="steelv" x1="0" y1="0" x2="0" y2="1"><stop offset="0" stop-color="#f4f7f9"/><stop offset=".45" stop-color="#aeb9c2"/><stop offset="1" stop-color="#6b7782"/></linearGradient><linearGradient id="paper" x1="0" y1="0" x2="1" y2="1"><stop offset="0" stop-color="#ffffff"/><stop offset="1" stop-color="#e4ebef"/></linearGradient><radialGradient id="luz"><stop offset="0" stop-color="#fffbe0"/><stop offset=".4" stop-color="#fde68a" stop-opacity=".9"/><stop offset="1" stop-color="#fde68a" stop-opacity="0"/></radialGradient></defs><ellipse cx="110" cy="142" rx="92" ry="7" fill="#0b1b24" opacity=".35" filter="url(#sh)"/><rect x="14" y="62" width="34" height="20" rx="5" fill="#2563eb" stroke="#1d4ed8"/><rect x="8" y="66" width="10" height="12" rx="3" fill="#ffffff" stroke="#94a3b8"/><path d="M44 66 C80 60 120 62 160 76 C182 84 196 98 200 112 L194 114 C186 104 172 92 156 86 C120 72 82 72 44 78 Z" fill="url(#glass)" stroke="#8fb5c6" stroke-width="1.2"/><path d="M200 112 L194 114 L190 108 L196 106 Z" fill="#d7e9f0" stroke="#8fb5c6"/><line x1="60" y1="64" x2="60" y2="80" stroke="#0f172a" stroke-width=".9"/><line x1="100" y1="64" x2="100" y2="74.0" stroke="#0f172a" stroke-width=".8"/><line x1="114" y1="67" x2="114" y2="77.5" stroke="#0f172a" stroke-width=".8"/><line x1="128" y1="70" x2="128" y2="81.0" stroke="#0f172a" stroke-width=".8"/><line x1="142" y1="73" x2="142" y2="84.5" stroke="#0f172a" stroke-width=".8"/><line x1="156" y1="76" x2="156" y2="88.0" stroke="#0f172a" stroke-width=".8"/><ellipse cx="170" cy="94" rx="15" ry="9" transform="rotate(34 170 94)" fill="#38bdf8" opacity=".55" stroke="#0284c7"/><path d="M110 78 C110 104 80 112 62 118" stroke="#38bdf8" stroke-width="2" fill="none"/><ellipse cx="58" cy="122" rx="8" ry="5" fill="#38bdf8" stroke="#0284c7"/><rect x="46" y="125" width="9" height="12" rx="2" fill="#ffffff" stroke="#94a3b8"/><rect x="124" y="30" width="78" height="26" rx="4" fill="#fff"/><rect x="124" y="30" width="78" height="8" rx="4" fill="#0d9488"/><text x="163.0" y="37" font-family="Plus Jakarta Sans,Arial,sans-serif" font-size="5.4" font-weight="800" fill="#fff" text-anchor="middle" >TUBO ENDOTRAQUEAL</text><text x="163.0" y="47" font-family="Plus Jakarta Sans,Arial,sans-serif" font-size="6.6" font-weight="800" fill="#0f172a" text-anchor="middle" >8,5 mm ID</text><text x="163.0" y="54" font-family="Plus Jakarta Sans,Arial,sans-serif" font-size="5" font-weight="600" fill="#475569" text-anchor="middle" >Con balón · varón</text></svg>