<svg xmlns="http://www.w3.org/2000/svg" viewBox="0 0 200 150" width="200" height="150"><defs><filter id="sh" x="-20%" y="-20%" width="140%" height="150%"><feGaussianBlur stdDeviation="3"/></filter><linearGradient id="glass" x1="0" x2="1"><stop offset="0" stop-color="#ffffff" stop-opacity=".95"/><stop offset=".5" stop-color="#dff1f7" stop-opacity=".7"/><stop offset="1" stop-color="#b9dbe8" stop-opacity=".85"/></linearGradient><linearGradient id="steel" x1="0" y1="0" x2="1" y2="1"><stop offset="0" stop-color="#f4f7f9"/><stop offset=".35" stop-color="#b8c2ca"/><stop offset=".6" stop-color="#eef2f4"/><stop offset="1" stop-color="#8d99a3"/></linearGradient><linearGradient id="steelv" x1="0" y1="0" x2="0" y2="1"><stop offset="0" stop-color="#f4f7f9"/><stop offset=".45" stop-color="#aeb9c2"/><stop offset="1" stop-color="#6b7782"/></linearGradient></defs><ellipse cx="100" cy="134" rx="56" ry="6" fill="#0b1b24" opacity=".35" filter="url(#sh)"/><rect x="46" y="44" width="108" height="80" rx="6" fill="#fff" stroke="#94a3b8" stroke-width="1.8"/><path d="M46 58 L154 58" stroke="#e2e8f0" stroke-width="1.5"/><path d="M46 72 L154 72" stroke="#e2e8f0" stroke-width="1.5"/><path d="M46 86 L154 86" stroke="#e2e8f0" stroke-width="1.5"/><path d="M46 100 L154 100" stroke="#e2e8f0" stroke-width="1.5"/><path d="M46 114 L154 114" stroke="#e2e8f0" stroke-width="1.5"/><rect x="36" y="4" width="128" height="26" rx="4" fill="#fff"/><rect x="36" y="4" width="128" height="8" rx="4" fill="#64748b"/><text x="100.0" y="11" font-family="Plus Jakarta Sans,Arial,sans-serif" font-size="5.4" font-weight="800" fill="#fff" text-anchor="middle" >TOALLA DE TELA</text><text x="100.0" y="21" font-family="Plus Jakarta Sans,Arial,sans-serif" font-size="6.6" font-weight="800" fill="#0f172a" text-anchor="middle" >Común · no estéril</text><text x="100.0" y="28" font-family="Plus Jakarta Sans,Arial,sans-serif" font-size="5" font-weight="600" fill="#475569" text-anchor="middle" >Contamina las manos</text></svg>